<?xml version="1.0" encoding="UTF-8" standalone="no"?>
<!-- Created with Inkscape (http://www.inkscape.org/) -->

<svg
   xmlns:dc="http://purl.org/dc/elements/1.1/"
   xmlns:cc="http://creativecommons.org/ns#"
   xmlns:rdf="http://www.w3.org/1999/02/22-rdf-syntax-ns#"
   xmlns:svg="http://www.w3.org/2000/svg"
   xmlns="http://www.w3.org/2000/svg"
   xmlns:sodipodi="http://sodipodi.sourceforge.net/DTD/sodipodi-0.dtd"
   xmlns:inkscape="http://www.inkscape.org/namespaces/inkscape"
   id="svg2"
   version="1.1"
   inkscape:version="0.91 r13725"
   xml:space="preserve"
   width="564.5965"
   height="810"
   viewBox="0 0 564.59651 810"
   sodipodi:docname="publicdomainq-business-man-shouting.svg"
   inkscape:export-filename="/media/sdb1/_GRAFIKA/Publicdomainq/lidi/publicdomainq-business-man-shouting.png"
   inkscape:export-xdpi="90.024696"
   inkscape:export-ydpi="90.024696"><title
     id="title7771">Business man - shouting</title><metadata
     id="metadata8"><rdf:RDF><cc:Work
         rdf:about=""><dc:format>image/svg+xml</dc:format><dc:type
           rdf:resource="http://purl.org/dc/dcmitype/StillImage" /><dc:title>Business man - shouting</dc:title><cc:license
           rdf:resource="http://creativecommons.org/publicdomain/zero/1.0/" /><dc:subject><rdf:Bag><rdf:li>man</rdf:li><rdf:li>male</rdf:li><rdf:li>office</rdf:li><rdf:li>happy</rdf:li><rdf:li>hey</rdf:li><rdf:li>shout</rdf:li><rdf:li>call</rdf:li><rdf:li>suit</rdf:li><rdf:li>tie</rdf:li><rdf:li>publicdomainq.net</rdf:li></rdf:Bag></dc:subject><dc:description>This image was adapted from a picture posted to publicdomainq.net. All of the images on these sites are in the public domain i.e. CC0. This site is only in Japanese but can be easily navigated with Google Translate.</dc:description></cc:Work><cc:License
         rdf:about="http://creativecommons.org/publicdomain/zero/1.0/"><cc:permits
           rdf:resource="http://creativecommons.org/ns#Reproduction" /><cc:permits
           rdf:resource="http://creativecommons.org/ns#Distribution" /><cc:permits
           rdf:resource="http://creativecommons.org/ns#DerivativeWorks" /></cc:License></rdf:RDF></metadata><defs
     id="defs6" /><sodipodi:namedview
     pagecolor="#ffffff"
     bordercolor="#666666"
     borderopacity="1"
     objecttolerance="10"
     gridtolerance="10"
     guidetolerance="10"
     inkscape:pageopacity="0"
     inkscape:pageshadow="2"
     inkscape:window-width="1920"
     inkscape:window-height="1125"
     id="namedview4"
     showgrid="false"
     inkscape:zoom="0.85973985"
     inkscape:cx="349.25265"
     inkscape:cy="380.23012"
     inkscape:window-x="0"
     inkscape:window-y="0"
     inkscape:window-maximized="1"
     inkscape:current-layer="svg2"
     fit-margin-top="5"
     fit-margin-left="5"
     fit-margin-bottom="5"
     fit-margin-right="5" /><g
     id="g12"
     transform="matrix(0.44499864,0,0,-0.44499864,5.0043556,804.9622)"><path
       d="m 555.805,707.672 c 0,0 -23.328,-9.172 -39.164,-30 -10.789,-14.192 -8.25,-54.731 -8.25,-54.731 4.312,-61.25 26.812,-128.121 26.812,-128.121 L 625.84,614.191 716.477,494.82 c 0,0 29.8,66.801 26.816,128.121 -1.652,33.891 -26.652,75.559 -48.313,81.391 l -139.175,3.34"
       style="fill:#ffffff;fill-opacity:1;fill-rule:nonzero;stroke:none"
       id="path14"
       inkscape:connector-curvature="0" /><path
       d="M 324.977,6 274.258,253.5 262.129,239.859 C 234.402,199.43 207.109,163.07 188.301,146.148 133.594,96.9219 53.5859,97.9297 23.0078,155.109 -10.4609,217.711 16.3477,282.84 32.9609,324.391 72.793,423.969 180.676,606.75 241.074,655.969 c 53.77,43.82 120.481,16.929 120.481,16.929 l 72.586,-13.148 77.5,12.5 221.25,-2.5 63.75,-8.75 88.078,11.898 c 0,0 66.707,26.891 120.481,-16.929 60.4,-49.219 168.28,-232 208.11,-331.578 16.61,-41.551 43.42,-106.68 9.95,-169.282 -30.57,-57.1793 -110.58,-58.1871 -165.29,-8.961 -19.02,17.122 -46.72,54.114 -74.767,95.082 L 972.012,253.5 923.301,6 324.977,6"
       style="fill:#ffffff;fill-opacity:1;fill-rule:nonzero;stroke:none"
       id="path16"
       inkscape:connector-curvature="0" /><path
       d="m 621.641,131 c -252.5,0 -338.75,83.75 -338.75,83.75 L 324.977,6 l 598.324,0 44.59,203.75 c 0,0 -93.75,-78.75 -346.25,-78.75"
       style="fill:#cee6ef;fill-opacity:1;fill-rule:nonzero;stroke:none"
       id="path18"
       inkscape:connector-curvature="0" /><path
       d="m 365.535,435.91 3.985,-26.871 c 0,0 -126.512,-213.668 -181.219,-262.891 C 133.594,96.9219 53.5859,97.9297 23.0078,155.109 -10.4609,217.711 16.3477,282.84 32.9609,324.391 72.793,423.969 180.676,606.75 241.074,655.969 c 53.77,43.82 120.481,16.929 120.481,16.929 l 72.586,-13.148 77.5,12.5"
       style="fill:none;stroke:#231f20;stroke-width:14;stroke-linecap:round;stroke-linejoin:round;stroke-miterlimit:10;stroke-dasharray:none;stroke-opacity:1"
       id="path20"
       inkscape:connector-curvature="0" /><path
       d="m 880.73,435.91 -3.984,-26.871 c 0,0 126.514,-213.668 181.224,-262.891 54.71,-49.2261 134.72,-48.2183 165.29,8.961 33.47,62.602 6.66,127.731 -9.95,169.282 -39.83,99.578 -147.71,282.359 -208.11,331.578 -53.774,43.82 -120.481,16.929 -120.481,16.929 L 796.641,661 l -63.75,8.75"
       style="fill:none;stroke:#231f20;stroke-width:14;stroke-linecap:round;stroke-linejoin:round;stroke-miterlimit:10;stroke-dasharray:none;stroke-opacity:1"
       id="path22"
       inkscape:connector-curvature="0" /><path
       d="m 535.078,490.609 65.61,91.532 48.675,1.058 63.489,-88.359 c 0,0 -69.844,35.969 -177.774,-4.231"
       style="fill:#cee6ef;fill-opacity:1;fill-rule:nonzero;stroke:none"
       id="path24"
       inkscape:connector-curvature="0" /><path
       d="m 551.641,6 55.183,510.691 -11.199,46.25 -0.187,11.2 30.402,40.05 30.937,-40.75 -0.722,-10.5 -11.2,-46.25 L 704.98,6 551.641,6"
       style="fill:#51ade5;fill-opacity:1;fill-rule:nonzero;stroke:none"
       id="path26"
       inkscape:connector-curvature="0" /><path
       d="m 689.512,727.609 c 0,0 2.168,-35.25 1.66,-53.418 0,0 -19.168,-46.25 -65.488,-60 -46.321,13.75 -65.489,60 -65.489,60 0.243,-0.269 -1.925,53.418 -1.925,53.418"
       style="fill:#fcd0b4;fill-opacity:1;fill-rule:nonzero;stroke:none"
       id="path28"
       inkscape:connector-curvature="0" /><path
       d="m 226.414,1179.64 c -21.25,59.59 -17.242,93.79 -17.242,93.79 l -16.899,-32.31 c -77.5,302.08 86.25,356.82 86.25,356.82 0,0 -64.824,20 -63.035,83.75 0,0 89.285,-21.25 187.617,36.25 91.016,53.22 220.157,89.63 350.84,64.69 117.91,-22.5 140.828,-106.09 140.828,-106.09 0,0 117.107,-16.81 161.257,-142.91 47.5,-135.69 7.5,-266.94 7.5,-266.94 l -12.2,36.06 c 0,0 -2.61,-53.52 -32.82,-124.55 l -12.9,-36.25 -761.672,-16.66 -17.524,54.35"
       style="fill:#7b4b4b;fill-opacity:1;fill-rule:nonzero;stroke:none"
       id="path30"
       inkscape:connector-curvature="0" /><path
       d="m 228.113,1174.4 15.825,-49.11 23.125,0.51 -38.54,48.24 c -0.085,0.01 -0.269,0.23 -0.41,0.36 z m 827.917,359.23 c -44.15,126.1 -161.257,142.91 -161.257,142.91 0,0 -22.918,83.59 -140.828,106.09 -130.683,24.94 -259.824,-11.47 -350.84,-64.69 -98.332,-57.5 -187.617,-36.25 -187.617,-36.25 -1.789,-63.75 63.035,-83.75 63.035,-83.75 0,0 -163.75,-54.74 -86.25,-356.82 l 2.754,5.27 c -0.703,3.13 -1.257,6.14 -1.504,8.9 -23.75,270 124.082,341.69 124.082,341.69 0,0 15.61,49.4 113.938,106.9 91.016,53.21 210.059,79.78 341.582,59.72 129.434,-19.75 128.391,-126.18 128.391,-126.18 0,0 122.914,-23.84 167.664,-150.65 -3.36,15.43 -7.64,31.12 -13.15,46.86"
       style="fill:#c79485;fill-opacity:1;fill-rule:nonzero;stroke:none"
       id="path32"
       inkscape:connector-curvature="0" /><path
       d="m 313.523,959.262 c -106.25,-5 -153.75,141.588 -116.25,194.088 27.051,37.87 81.704,13.53 91.899,-7.23"
       style="fill:#fcd0b4;fill-opacity:1;fill-rule:nonzero;stroke:none"
       id="path34"
       inkscape:connector-curvature="0" /><path
       d="m 286.809,1087.02 c 10.027,-28.71 22.949,-71.15 3.296,-78.01 -19.625,-6.86 -43.667,10.85 -53.71,39.56 -10.016,28.7 -2.247,57.55 17.406,64.4 19.644,6.87 22.976,2.75 33.008,-25.95"
       style="fill:#de9284;fill-opacity:1;fill-rule:nonzero;stroke:none"
       id="path36"
       inkscape:connector-curvature="0" /><path
       d="m 938.523,959.262 c 106.257,-5 153.757,141.588 116.257,194.088 -27.06,37.87 -81.694,13.53 -91.909,-7.23"
       style="fill:#fcd0b4;fill-opacity:1;fill-rule:nonzero;stroke:none"
       id="path38"
       inkscape:connector-curvature="0" /><path
       d="m 560.449,746.398 126.973,0 1.379,-48.179 c 0,0 -69.863,-95.02 -131.946,-25.43 l 2.403,24.242 1.191,49.367"
       style="fill:#de9284;fill-opacity:1;fill-rule:nonzero;stroke:none"
       id="path40"
       inkscape:connector-curvature="0" /><path
       d="m 422.969,1485.7 c -126.946,-31.51 -133.196,-244.58 -133.196,-244.58 -2.886,-113.57 2.231,-308.772 71.25,-383.108 68.567,-73.832 135,-110 193.75,-127.5 0,0 72.5,-24.172 142.5,0 58.75,17.5 125.188,53.668 193.75,127.5 75.227,81.004 74.563,307.428 70.325,411.278 -1.25,30.76 -18.157,65.94 -25.528,74.71 -107.297,127.69 -106.992,206.63 -106.992,206.63 l -15.098,-18.16 c -27.667,-27.63 -78.601,-55.14 -171.796,-68.84 0,0 33.339,113.32 60,133.32 0,0 -116.661,-148.32 -306.661,-183.32 0,0 5.977,25.71 21.485,59.28 l 6.211,12.79"
       style="fill:#fcd0b4;fill-opacity:1;fill-rule:nonzero;stroke:none"
       id="path42"
       inkscape:connector-curvature="0" /><path
       d="m 530.313,1366.35 c -4.122,-3.46 -15.02,3.39 -30.743,12.96 -15.527,9.4 -37.199,21.27 -57.793,18.28 -20.73,-2.45 -38.547,-19.15 -49.148,-32.35 -11.047,-13.39 -15.195,-23.55 -20.356,-24.02 -2.539,-0.14 -5.371,3.17 -6.48,9.77 -1.137,6.53 -0.449,15.98 3.25,26.64 3.711,10.64 10.312,22.73 21.309,33.81 10.82,10.95 27.031,21.05 46.562,23.52 19.531,2.61 37.774,-3.06 50.859,-10.63 13.34,-7.62 22.747,-16.87 29.512,-25.12 13.399,-16.75 16.856,-29.7 13.028,-32.86"
       style="fill:#231f20;fill-opacity:1;fill-rule:nonzero;stroke:none"
       id="path44"
       inkscape:connector-curvature="0" /><path
       d="m 721.738,1366.35 c -3.828,3.16 -0.371,16.11 13.028,32.86 6.765,8.25 16.172,17.5 29.511,25.12 13.086,7.57 31.328,13.24 50.86,10.63 19.531,-2.47 35.742,-12.57 46.562,-23.52 10.996,-11.08 17.598,-23.17 21.309,-33.81 3.703,-10.66 4.375,-20.11 3.254,-26.64 -1.125,-6.6 -3.957,-9.91 -6.496,-9.77 -5.149,0.47 -9.297,10.63 -20.34,24.02 -10.61,13.2 -28.418,29.9 -49.153,32.35 -20.593,2.99 -42.265,-8.88 -57.793,-18.28 -15.722,-9.57 -26.621,-16.42 -30.742,-12.96"
       style="fill:#231f20;fill-opacity:1;fill-rule:nonzero;stroke:none"
       id="path46"
       inkscape:connector-curvature="0" /><path
       d="m 464.656,1101.78 c 0,-13.7 -30.84,-24.8 -68.875,-24.8 -38.047,0 -68.886,11.1 -68.886,24.8 0,13.69 30.839,24.79 68.886,24.79 38.035,0 68.875,-11.1 68.875,-24.79"
       style="fill:#f7939c;fill-opacity:1;fill-rule:nonzero;stroke:none"
       id="path48"
       inkscape:connector-curvature="0" /><path
       d="m 931.563,1101.78 c 0,-13.7 -30.84,-24.8 -68.887,-24.8 -38.047,0 -68.887,11.1 -68.887,24.8 0,13.69 30.84,24.79 68.887,24.79 38.047,0 68.887,-11.1 68.887,-24.79"
       style="fill:#f7939c;fill-opacity:1;fill-rule:nonzero;stroke:none"
       id="path50"
       inkscape:connector-curvature="0" /><path
       d="m 965.242,1087.02 c -10.027,-28.71 -22.937,-71.15 -3.308,-78.01 19.648,-6.86 43.696,10.85 53.706,39.56 10.04,28.7 2.25,57.55 -17.378,64.4 -19.668,6.87 -22.989,2.75 -33.02,-25.95"
       style="fill:#de9284;fill-opacity:1;fill-rule:nonzero;stroke:none"
       id="path52"
       inkscape:connector-curvature="0" /><path
       d="m 566.504,1613.03 c 0,0 -117.039,-27.59 -165.059,-195.24 l 39.66,7.98 c 0,0 39.286,126.24 125.399,187.26"
       style="fill:#c79485;fill-opacity:1;fill-rule:nonzero;stroke:none"
       id="path54"
       inkscape:connector-curvature="0" /><path
       d="m 731.855,1610.7 c 0,0 -50.285,-10.45 -83.75,-143.75 l 32.918,5.43 c 0,0 11.25,93.32 50.832,138.32"
       style="fill:#c79485;fill-opacity:1;fill-rule:nonzero;stroke:none"
       id="path56"
       inkscape:connector-curvature="0" /><path
       d="m 530.145,1225.36 c 0,-49.19 -28.243,-89.07 -63.075,-89.07 -34.843,0 -63.105,39.88 -63.105,89.07 0,49.19 28.262,89.06 63.105,89.06 34.832,0 63.075,-39.87 63.075,-89.06"
       style="fill:#ffffff;fill-opacity:1;fill-rule:nonzero;stroke:none"
       id="path58"
       inkscape:connector-curvature="0" /><path
       d="m 520.313,1206.98 c 0,-30.96 -17.422,-56.06 -38.895,-56.06 -21.484,0 -38.898,25.1 -38.898,56.06 0,30.96 17.414,56.06 38.898,56.06 21.473,0 38.895,-25.1 38.895,-56.06"
       style="fill:#231f20;fill-opacity:1;fill-rule:nonzero;stroke:none"
       id="path60"
       inkscape:connector-curvature="0" /><path
       d="m 519.629,1225.75 c 0,-6.34 -5.137,-11.49 -11.484,-11.49 -6.348,0 -11.504,5.15 -11.504,11.49 0,6.34 5.156,11.49 11.504,11.49 6.347,0 11.484,-5.15 11.484,-11.49"
       style="fill:#ffffff;fill-opacity:1;fill-rule:nonzero;stroke:none"
       id="path62"
       inkscape:connector-curvature="0" /><path
       d="m 473.254,1284.8 c 15.957,0 31.172,-3.12 45.215,-8.64 -12.617,19.89 -30.903,32.48 -51.289,32.48 -23.047,0 -43.379,-16.02 -55.903,-40.52 18.266,10.56 39.399,16.68 61.977,16.68"
       style="fill:#d8e5f6;fill-opacity:1;fill-rule:nonzero;stroke:none"
       id="path64"
       inkscape:connector-curvature="0" /><path
       d="m 523.242,1276.98 c -24.238,55.34 -119.355,60.2 -122.976,-48.89"
       style="fill:none;stroke:#231f20;stroke-width:16;stroke-linecap:round;stroke-linejoin:round;stroke-miterlimit:10;stroke-dasharray:none;stroke-opacity:1"
       id="path66"
       inkscape:connector-curvature="0" /><path
       d="m 719.824,1225.36 c 0,-49.19 28.242,-89.07 63.074,-89.07 34.844,0 63.11,39.88 63.11,89.07 0,49.19 -28.266,89.06 -63.11,89.06 -34.832,0 -63.074,-39.87 -63.074,-89.06"
       style="fill:#ffffff;fill-opacity:1;fill-rule:nonzero;stroke:none"
       id="path68"
       inkscape:connector-curvature="0" /><path
       d="m 729.656,1206.98 c 0,-30.96 17.422,-56.06 38.899,-56.06 21.484,0 38.894,25.1 38.894,56.06 0,30.96 -17.41,56.06 -38.894,56.06 -21.477,0 -38.899,-25.1 -38.899,-56.06"
       style="fill:#231f20;fill-opacity:1;fill-rule:nonzero;stroke:none"
       id="path70"
       inkscape:connector-curvature="0" /><path
       d="m 783.672,1225.75 c 0,-6.34 5.137,-11.49 11.484,-11.49 6.348,0 11.504,5.15 11.504,11.49 0,6.34 -5.156,11.49 -11.504,11.49 -6.347,0 -11.484,-5.15 -11.484,-11.49"
       style="fill:#ffffff;fill-opacity:1;fill-rule:nonzero;stroke:none"
       id="path72"
       inkscape:connector-curvature="0" /><path
       d="m 775.891,1284.8 c -15.957,0 -31.172,-3.12 -45.215,-8.64 12.617,19.89 30.894,32.48 51.289,32.48 23.047,0 43.379,-16.02 55.894,-40.52 -18.257,10.56 -39.39,16.68 -61.968,16.68"
       style="fill:#d8e5f6;fill-opacity:1;fill-rule:nonzero;stroke:none"
       id="path74"
       inkscape:connector-curvature="0" /><path
       d="m 726.73,1276.98 c 24.239,55.34 119.356,60.2 122.977,-48.89"
       style="fill:none;stroke:#231f20;stroke-width:16;stroke-linecap:round;stroke-linejoin:round;stroke-miterlimit:10;stroke-dasharray:none;stroke-opacity:1"
       id="path76"
       inkscape:connector-curvature="0" /><path
       d="m 845.273,1611.95 c 0,0 23.332,-114.99 -203.339,-148.32 0,0 33.339,113.32 60,133.32 0,0 -116.661,-148.32 -306.661,-183.32 0,0 33.332,143.33 146.661,195"
       style="fill:none;stroke:#231f20;stroke-width:14;stroke-linecap:round;stroke-linejoin:round;stroke-miterlimit:10;stroke-dasharray:none;stroke-opacity:1"
       id="path78"
       inkscape:connector-curvature="0" /><path
       d="m 620.605,1146.44 c 0,0 -42.5,-16.67 -38.332,-36.67 4.172,-20 19.172,-42.5 19.172,-42.5"
       style="fill:none;stroke:#231f20;stroke-width:14;stroke-linecap:round;stroke-linejoin:round;stroke-miterlimit:10;stroke-dasharray:none;stroke-opacity:1"
       id="path80"
       inkscape:connector-curvature="0" /><path
       d="m 599.773,1211.9 c 0,0 12.493,-44.63 9.172,-69.63"
       style="fill:none;stroke:#231f20;stroke-width:14;stroke-linecap:round;stroke-linejoin:round;stroke-miterlimit:10;stroke-dasharray:none;stroke-opacity:1"
       id="path82"
       inkscape:connector-curvature="0" /><path
       d="m 313.523,959.262 c -106.25,-5 -153.75,141.588 -116.25,194.088 27.051,37.87 81.704,13.53 91.899,-7.23"
       style="fill:none;stroke:#231f20;stroke-width:14;stroke-linecap:round;stroke-linejoin:round;stroke-miterlimit:10;stroke-dasharray:none;stroke-opacity:1"
       id="path84"
       inkscape:connector-curvature="0" /><path
       d="m 293.563,1080.52 c 0,0 -35.583,72.82 -75.918,38.67"
       style="fill:none;stroke:#231f20;stroke-width:14;stroke-linecap:round;stroke-linejoin:round;stroke-miterlimit:10;stroke-dasharray:none;stroke-opacity:1"
       id="path86"
       inkscape:connector-curvature="0" /><path
       d="m 938.523,959.262 c 106.257,-5 153.757,141.588 116.257,194.088 -27.06,37.87 -81.694,13.53 -91.909,-7.23"
       style="fill:none;stroke:#231f20;stroke-width:14;stroke-linecap:round;stroke-linejoin:round;stroke-miterlimit:10;stroke-dasharray:none;stroke-opacity:1"
       id="path88"
       inkscape:connector-curvature="0" /><path
       d="m 958.477,1080.52 c 0,0 35.593,72.82 75.923,38.67"
       style="fill:none;stroke:#231f20;stroke-width:14;stroke-linecap:round;stroke-linejoin:round;stroke-miterlimit:10;stroke-dasharray:none;stroke-opacity:1"
       id="path90"
       inkscape:connector-curvature="0" /><path
       d="m 828.828,1550.63 c 0,0 -0.305,-78.94 106.992,-206.63 7.371,-8.77 24.278,-43.95 25.528,-74.71 4.238,-103.85 4.902,-330.274 -70.325,-411.278 -68.562,-73.832 -135,-110 -193.75,-127.5 -70,-24.172 -142.5,0 -142.5,0 -58.75,17.5 -125.183,53.668 -193.75,127.5 -69.019,74.336 -74.136,269.538 -71.25,383.108 0,0 6.25,213.07 133.196,244.58"
       style="fill:none;stroke:#231f20;stroke-width:14;stroke-linecap:round;stroke-linejoin:round;stroke-miterlimit:10;stroke-dasharray:none;stroke-opacity:1"
       id="path92"
       inkscape:connector-curvature="0" /><path
       d="m 218.184,1291.23 c -13.821,-27.65 -25.911,-50.11 -25.911,-50.11 -77.5,302.08 86.25,356.82 86.25,356.82 0,0 -64.824,20 -63.035,83.75 0,0 89.285,-21.25 187.617,36.25 91.016,53.22 220.157,89.63 350.84,64.69 117.91,-22.5 140.828,-106.09 140.828,-106.09 0,0 117.107,-16.81 161.257,-142.91 47.5,-135.69 7.5,-266.94 7.5,-266.94 0,0 -10.82,33.52 -24.27,69.47"
       style="fill:none;stroke:#231f20;stroke-width:14;stroke-linecap:round;stroke-linejoin:round;stroke-miterlimit:10;stroke-dasharray:none;stroke-opacity:1"
       id="path94"
       inkscape:connector-curvature="0" /><path
       d="m 209.172,1273.43 c 0,0 -4.008,-34.2 17.242,-93.79"
       style="fill:none;stroke:#231f20;stroke-width:14;stroke-linecap:round;stroke-linejoin:round;stroke-miterlimit:10;stroke-dasharray:none;stroke-opacity:1"
       id="path96"
       inkscape:connector-curvature="0" /><path
       d="m 1051.33,1302.75 c 0,0 -2.61,-53.52 -32.82,-124.55"
       style="fill:none;stroke:#231f20;stroke-width:14;stroke-linecap:round;stroke-linejoin:round;stroke-miterlimit:10;stroke-dasharray:none;stroke-opacity:1"
       id="path98"
       inkscape:connector-curvature="0" /><path
       d="m 530.313,1366.35 c -4.122,-3.46 -15.02,3.39 -30.743,12.96 -15.527,9.4 -37.199,21.27 -57.793,18.28 -20.73,-2.45 -38.547,-19.15 -49.148,-32.35 -11.047,-13.39 -15.195,-23.55 -20.356,-24.02 -2.539,-0.14 -5.371,3.17 -6.48,9.77 -1.137,6.53 -0.449,15.98 3.25,26.64 3.711,10.64 10.312,22.73 21.309,33.81 10.82,10.95 27.031,21.05 46.562,23.52 19.531,2.61 37.774,-3.06 50.859,-10.63 13.34,-7.62 22.747,-16.87 29.512,-25.12 13.399,-16.75 16.856,-29.7 13.028,-32.86"
       style="fill:#231f20;fill-opacity:1;fill-rule:nonzero;stroke:none"
       id="path100"
       inkscape:connector-curvature="0" /><path
       d="m 721.738,1366.35 c -3.828,3.16 -0.371,16.11 13.028,32.86 6.765,8.25 16.172,17.5 29.511,25.12 13.086,7.57 31.328,13.24 50.86,10.63 19.531,-2.47 35.742,-12.57 46.562,-23.52 10.996,-11.08 17.598,-23.17 21.309,-33.81 3.703,-10.66 4.375,-20.11 3.254,-26.64 -1.125,-6.6 -3.957,-9.91 -6.496,-9.77 -5.149,0.47 -9.297,10.63 -20.34,24.02 -10.61,13.2 -28.418,29.9 -49.153,32.35 -20.593,2.99 -42.265,-8.88 -57.793,-18.28 -15.722,-9.57 -26.621,-16.42 -30.742,-12.96"
       style="fill:#231f20;fill-opacity:1;fill-rule:nonzero;stroke:none"
       id="path102"
       inkscape:connector-curvature="0" /><path
       d="m 690.383,728.512 c 0,0 0.808,-36.262 3.25,-53.371 0,0 -21.629,-47.2 -67.949,-60.95 -46.321,13.75 -69.746,60.539 -69.746,60.539 1.218,19.969 1.628,53.782 1.628,53.782"
       style="fill:none;stroke:#231f20;stroke-width:14;stroke-linecap:round;stroke-linejoin:round;stroke-miterlimit:10;stroke-dasharray:none;stroke-opacity:1"
       id="path104"
       inkscape:connector-curvature="0" /><path
       d="m 551.641,6 55.183,510.691 -11.199,52.957"
       style="fill:none;stroke:#231f20;stroke-width:12;stroke-linecap:round;stroke-linejoin:round;stroke-miterlimit:10;stroke-dasharray:none;stroke-opacity:1"
       id="path106"
       inkscape:connector-curvature="0" /><path
       d="M 656.055,569.648 644.855,516.691 704.98,6"
       style="fill:none;stroke:#231f20;stroke-width:12;stroke-linecap:round;stroke-linejoin:round;stroke-miterlimit:10;stroke-dasharray:none;stroke-opacity:1"
       id="path108"
       inkscape:connector-curvature="0" /><path
       d="M 972.012,253.5 923.301,6"
       style="fill:none;stroke:#231f20;stroke-width:12;stroke-linecap:round;stroke-linejoin:round;stroke-miterlimit:10;stroke-dasharray:none;stroke-opacity:1"
       id="path110"
       inkscape:connector-curvature="0" /><path
       d="m 555.805,707.672 c 0,0 -23.328,-9.172 -39.164,-30 -10.789,-14.192 -8.25,-54.731 -8.25,-54.731 4.312,-61.25 26.812,-128.121 26.812,-128.121 L 625.84,614.191 716.477,494.82 c 0,0 29.8,66.801 26.816,128.121 -1.652,33.891 -26.652,75.559 -48.313,81.391"
       style="fill:none;stroke:#231f20;stroke-width:12;stroke-linecap:round;stroke-linejoin:round;stroke-miterlimit:10;stroke-dasharray:none;stroke-opacity:1"
       id="path112"
       inkscape:connector-curvature="0" /><path
       d="m 627.156,771.48 c -95.426,0 -102.246,215.79 -103.379,247.75 0,0 101.496,-40.671 202.981,0 -1.145,-31.96 -7.969,-247.75 -103.379,-247.75"
       style="fill:#ec586e;fill-opacity:1;fill-rule:nonzero;stroke:none"
       id="path114"
       inkscape:connector-curvature="0" /><path
       d="m 623.379,964.391 c 36.726,0 69.687,-12.336 92.676,-53.578 8.703,48.847 10.222,94.947 10.703,108.417 -101.485,-40.671 -202.981,0 -202.981,0 0.461,-13 1.86,-56.367 9.77,-103.269 22.832,38.281 54.629,48.43 89.832,48.43"
       style="fill:#bb4449;fill-opacity:1;fill-rule:nonzero;stroke:none"
       id="path116"
       inkscape:connector-curvature="0" /><path
       d="m 627.156,771.48 c -95.426,0 -102.246,215.79 -103.379,247.75 0,0 101.496,-40.671 202.981,0 -1.145,-31.96 -7.969,-247.75 -103.379,-247.75"
       style="fill:none;stroke:#231f20;stroke-width:14;stroke-linecap:round;stroke-linejoin:round;stroke-miterlimit:10;stroke-dasharray:none;stroke-opacity:1"
       id="path118"
       inkscape:connector-curvature="0" /><path
       d="m 897.656,417.988 c 0,0 -92.597,114.5 -116.496,202.141 -24.265,89.012 75.664,222.062 75.664,222.062 0,0 -36.836,134.414 -40.816,163.299 -4.504,32.62 35.847,76.67 42.82,31.86 6.121,-39.358 76.668,-213.088 79.656,-231.006 2.981,-17.934 -49.785,-109.543 -57.754,-135.422 -7.964,-25.891 58.762,-98.582 58.762,-98.582 0,0 25.879,-44.828 -41.836,-154.352"
       style="fill:#fcd0b4;fill-opacity:1;fill-rule:nonzero;stroke:none"
       id="path120"
       inkscape:connector-curvature="0" /><path
       d="m 787.129,597.23 c -90.613,122.469 0,231.016 11.965,248.938 11.941,17.93 36.812,70.523 36.812,70.523 l 15.949,134.599 c 5.977,14.93 43.821,27.89 44.805,-5.97 0.985,-33.85 30.879,-208.121 30.879,-208.121 L 844.641,680.879 787.129,597.23"
       style="fill:#fcd0b4;fill-opacity:1;fill-rule:nonzero;stroke:none"
       id="path122"
       inkscape:connector-curvature="0" /><path
       d="m 836.672,911.898 20.152,-69.707 c 0,0 -58.992,-97.589 -67.945,-137.91 -8.969,-40.332 -5.981,-94.09 -5.981,-94.09 0,0 -43.32,58.239 -37.339,101.559 5.972,43.309 17.925,91.113 41.812,117.988 23.906,26.899 49.301,82.16 49.301,82.16"
       style="fill:#de9284;fill-opacity:1;fill-rule:nonzero;stroke:none"
       id="path124"
       inkscape:connector-curvature="0" /><path
       d="M 1193.45,336.32 C 1134.94,398 961.699,581.27 953.926,588.281 c -9.961,8.949 -17.93,-2.992 -17.93,-2.992"
       style="fill:none;stroke:#231f20;stroke-width:14;stroke-linecap:round;stroke-linejoin:round;stroke-miterlimit:10;stroke-dasharray:none;stroke-opacity:1"
       id="path126"
       inkscape:connector-curvature="0" /><path
       d="m 897.656,417.988 c 0,0 -92.597,114.5 -116.496,202.141 -24.265,89.012 75.664,222.062 75.664,222.062 0,0 -36.836,134.414 -40.816,163.299 -4.504,32.62 35.847,76.67 42.82,31.86 6.121,-39.358 76.668,-213.088 79.656,-231.006 2.981,-17.934 -49.785,-109.543 -57.754,-135.422 -7.964,-25.891 58.762,-98.582 58.762,-98.582 0,0 25.879,-44.828 -41.836,-154.352 z"
       style="fill:none;stroke:#231f20;stroke-width:14;stroke-linecap:round;stroke-linejoin:round;stroke-miterlimit:10;stroke-dasharray:none;stroke-opacity:1"
       id="path128"
       inkscape:connector-curvature="0" /><path
       d="m 927.539,837.199 c 0,0 -29.894,174.271 -30.879,208.121 -0.984,33.86 -38.828,20.9 -44.805,5.97"
       style="fill:none;stroke:#231f20;stroke-width:14;stroke-linecap:round;stroke-linejoin:round;stroke-miterlimit:10;stroke-dasharray:none;stroke-opacity:1"
       id="path130"
       inkscape:connector-curvature="0" /><path
       d="m 835.906,916.691 c 0,0 -24.871,-52.593 -36.812,-70.523 C 787.129,828.246 696.516,719.699 787.129,597.23"
       style="fill:none;stroke:#231f20;stroke-width:14;stroke-linecap:round;stroke-linejoin:round;stroke-miterlimit:10;stroke-dasharray:none;stroke-opacity:1"
       id="path132"
       inkscape:connector-curvature="0" /><path
       d="M 274.258,253.5 324.977,6"
       style="fill:none;stroke:#231f20;stroke-width:12;stroke-linecap:round;stroke-linejoin:round;stroke-miterlimit:10;stroke-dasharray:none;stroke-opacity:1"
       id="path134"
       inkscape:connector-curvature="0" /><path
       d="m 348.613,417.988 c 0,0 92.598,114.5 116.492,202.141 24.27,89.012 -75.664,222.062 -75.664,222.062 0,0 36.836,134.414 40.825,163.299 4.5,32.62 -35.852,76.67 -42.825,31.86 -6.125,-39.358 -76.671,-213.088 -79.66,-231.006 -2.976,-17.934 49.785,-109.543 57.754,-135.422 7.973,-25.891 -58.758,-98.582 -58.758,-98.582 0,0 -25.879,-44.828 41.836,-154.352"
       style="fill:#fcd0b4;fill-opacity:1;fill-rule:nonzero;stroke:none"
       id="path136"
       inkscape:connector-curvature="0" /><path
       d="m 459.141,597.23 c 90.617,122.469 0,231.016 -11.961,248.938 -11.946,17.93 -36.821,70.523 -36.821,70.523 l -15.945,134.599 c -5.976,14.93 -43.816,27.89 -44.805,-5.97 -0.988,-33.85 -30.879,-208.121 -30.879,-208.121 l 82.903,-156.32 57.508,-83.649"
       style="fill:#fcd0b4;fill-opacity:1;fill-rule:nonzero;stroke:none"
       id="path138"
       inkscape:connector-curvature="0" /><path
       d="m 409.602,911.898 -20.161,-69.707 c 0,0 58.997,-97.589 67.954,-137.91 8.96,-40.332 5.972,-94.09 5.972,-94.09 0,0 43.321,58.239 37.348,101.559 -5.981,43.309 -17.934,91.113 -41.82,117.988 -23.907,26.899 -49.293,82.16 -49.293,82.16"
       style="fill:#de9284;fill-opacity:1;fill-rule:nonzero;stroke:none"
       id="path140"
       inkscape:connector-curvature="0" /><path
       d="m 59.1406,338.5 c 58.5044,61.68 225.4294,242.77 233.2034,249.781 9.961,8.949 17.929,-2.992 17.929,-2.992"
       style="fill:none;stroke:#231f20;stroke-width:14;stroke-linecap:round;stroke-linejoin:round;stroke-miterlimit:10;stroke-dasharray:none;stroke-opacity:1"
       id="path142"
       inkscape:connector-curvature="0" /><path
       d="m 348.613,417.988 c 0,0 92.598,114.5 116.492,202.141 24.27,89.012 -75.664,222.062 -75.664,222.062 0,0 36.836,134.414 40.825,163.299 4.5,32.62 -35.852,76.67 -42.825,31.86 -6.125,-39.358 -76.671,-213.088 -79.66,-231.006 -2.976,-17.934 49.785,-109.543 57.754,-135.422 7.973,-25.891 -58.758,-98.582 -58.758,-98.582 0,0 -25.879,-44.828 41.836,-154.352 z"
       style="fill:none;stroke:#231f20;stroke-width:14;stroke-linecap:round;stroke-linejoin:round;stroke-miterlimit:10;stroke-dasharray:none;stroke-opacity:1"
       id="path144"
       inkscape:connector-curvature="0" /><path
       d="m 318.73,837.199 c 0,0 29.891,174.271 30.879,208.121 0.989,33.86 38.829,20.9 44.805,5.97"
       style="fill:none;stroke:#231f20;stroke-width:14;stroke-linecap:round;stroke-linejoin:round;stroke-miterlimit:10;stroke-dasharray:none;stroke-opacity:1"
       id="path146"
       inkscape:connector-curvature="0" /><path
       d="m 410.359,916.691 c 0,0 24.875,-52.593 36.821,-70.523 11.961,-17.922 102.578,-126.469 11.961,-248.938"
       style="fill:none;stroke:#231f20;stroke-width:14;stroke-linecap:round;stroke-linejoin:round;stroke-miterlimit:10;stroke-dasharray:none;stroke-opacity:1"
       id="path148"
       inkscape:connector-curvature="0" /><path
       d="m 209.141,494.75 c 0,0 13.75,-187.5 95,-185"
       style="fill:none;stroke:#231f20;stroke-width:14;stroke-linecap:round;stroke-linejoin:round;stroke-miterlimit:10;stroke-dasharray:none;stroke-opacity:1"
       id="path150"
       inkscape:connector-curvature="0" /><path
       d="m 1017.89,511 c 0,0 2.5,-207.5 -84.999,-190"
       style="fill:none;stroke:#231f20;stroke-width:14;stroke-linecap:round;stroke-linejoin:round;stroke-miterlimit:10;stroke-dasharray:none;stroke-opacity:1"
       id="path152"
       inkscape:connector-curvature="0" /></g></svg>